<svg xmlns="http://www.w3.org/2000/svg" xmlns:xlink="http://www.w3.org/1999/xlink" width="47.108" height="47.108" viewBox="0 0 47.108 47.108">
  <defs>
    <linearGradient id="linear-gradient" x1="0.067" y1="0.25" x2="0.933" y2="0.75" gradientUnits="objectBoundingBox">
      <stop offset="0.559" stop-color="#7595c9"/>
      <stop offset="1" stop-color="#3665a7"/>
    </linearGradient>
  </defs>
  <g id="Group_331" data-name="Group 331" transform="translate(0 -3.759)">
    <circle id="Ellipse_114" data-name="Ellipse 114" cx="20" cy="20" r="20" transform="translate(0 42.972) rotate(-78.616)" fill="url(#linear-gradient)"/>
    <path id="Path_19320" data-name="Path 19320" d="M125.048,1203.88h5.34v17.16h-5.34Zm2.671-8.532a3.093,3.093,0,1,1-3.094,3.091,3.092,3.092,0,0,1,3.094-3.091m6.015,25.693h5.327v-8.489c0-2.239.423-4.406,3.2-4.406,2.734,0,2.773,2.561,2.773,4.551v8.344h5.328v-9.413c0-4.622-1-8.175-6.394-8.175a5.6,5.6,0,0,0-5.047,2.772h-.072v-2.344h-5.113Z" transform="translate(-113.189 -1183.186)" fill="#fff"/>
  </g>
</svg>
