<svg id="Group_333" data-name="Group 333" xmlns="http://www.w3.org/2000/svg" xmlns:xlink="http://www.w3.org/1999/xlink" width="40" height="40" viewBox="0 0 40 40">
  <defs>
    <linearGradient id="linear-gradient" x1="0.067" y1="0.25" x2="0.933" y2="0.75" gradientUnits="objectBoundingBox">
      <stop offset="0.255" stop-color="#9abce2"/>
      <stop offset="1" stop-color="#368ac8"/>
    </linearGradient>
  </defs>
  <circle id="Ellipse_116" data-name="Ellipse 116" cx="20" cy="20" r="20" fill="url(#linear-gradient)"/>
  <path id="Path_19322" data-name="Path 19322" d="M129.791,950.953c10.409,0,16.1-8.624,16.1-16.1,0-.245,0-.489-.017-.731a11.5,11.5,0,0,0,2.824-2.93,11.315,11.315,0,0,1-3.25.891,5.68,5.68,0,0,0,2.488-3.13,11.329,11.329,0,0,1-3.593,1.374,5.664,5.664,0,0,0-9.645,5.161,16.068,16.068,0,0,1-11.665-5.913,5.662,5.662,0,0,0,1.752,7.555,5.611,5.611,0,0,1-2.563-.708c0,.024,0,.048,0,.072a5.663,5.663,0,0,0,4.541,5.549,5.652,5.652,0,0,1-2.556.1,5.666,5.666,0,0,0,5.287,3.931,11.356,11.356,0,0,1-7.029,2.422,11.523,11.523,0,0,1-1.349-.078,16.021,16.021,0,0,0,8.675,2.542" transform="translate(-113.829 -918.606)" fill="#fff"/>
</svg>
